<?xml version="1.0" encoding="UTF-8"?>
<svg width="48" height="48" viewBox="0 0 48 48" xmlns="http://www.w3.org/2000/svg">
  <defs>
    <linearGradient id="bgGrad" x1="0%" y1="0%" x2="100%" y2="100%">
      <stop offset="0%" style="stop-color:#1a1a2e;stop-opacity:1" />
      <stop offset="100%" style="stop-color:#16213e;stop-opacity:1" />
    </linearGradient>
  </defs>
  
  <!-- 背景 -->
  <rect width="48" height="48" rx="9" fill="url(#bgGrad)"/>
  
  <!-- 2x2 书签卡片网格 -->
  <g>
    <!-- 卡片 1 -->
    <rect x="6" y="6" width="16" height="16" rx="3" 
          fill="none" stroke="#667eea" stroke-width="1"/>
    <line x1="9" y1="10" 
          x2="19" y2="10" 
          stroke="#667eea" stroke-width="1" stroke-linecap="round" opacity="0.8"/>
    <line x1="9" y1="13" 
          x2="16" y2="13" 
          stroke="#667eea" stroke-width="1" stroke-linecap="round" opacity="0.5"/>
    
    <!-- 卡片 2 -->
    <rect x="25" y="6" width="16" height="16" rx="3" 
          fill="none" stroke="#667eea" stroke-width="1"/>
    <line x1="28" y1="10" 
          x2="35" y2="10" 
          stroke="#667eea" stroke-width="1" stroke-linecap="round" opacity="0.8"/>
    <line x1="28" y1="13" 
          x2="35" y2="13" 
          stroke="#667eea" stroke-width="1" stroke-linecap="round" opacity="0.5"/>
    
    <!-- 卡片 3 -->
    <rect x="6" y="25" width="16" height="16" rx="3" 
          fill="none" stroke="#667eea" stroke-width="1"/>
    <line x1="9" y1="29" 
          x2="19" y2="29" 
          stroke="#667eea" stroke-width="1" stroke-linecap="round" opacity="0.8"/>
    <line x1="9" y1="32" 
          x2="16" y2="32" 
          stroke="#667eea" stroke-width="1" stroke-linecap="round" opacity="0.5"/>
    
    <!-- 卡片 4 -->
    <rect x="25" y="25" width="16" height="16" rx="3" 
          fill="none" stroke="#667eea" stroke-width="1"/>
    <line x1="28" y1="29" 
          x2="35" y2="29" 
          stroke="#667eea" stroke-width="1" stroke-linecap="round" opacity="0.8"/>
    <line x1="28" y1="32" 
          x2="35" y2="32" 
          stroke="#667eea" stroke-width="1" stroke-linecap="round" opacity="0.5"/>
    
    <!-- 书签角标 -->
    <polygon points="37,38 41,38 
                     41,42 
                     39,40 
                     37,42" 
             fill="#667eea"/>
  </g>
</svg>